<?xml version='1.0' encoding='utf-8'?>
<svg xmlns="http://www.w3.org/2000/svg" id="Layer_1" data-name="Layer 1" viewBox="0 0 300 300" width="300" height="300"><defs><clipPath id="bz_circular_clip"><circle cx="150.0" cy="150.0" r="150.0" /></clipPath></defs><g clip-path="url(#bz_circular_clip)"><rect x="-1.5" y="-1.5" width="303" height="303" fill="#1a1f2d" /><path d="M143.39,133.14a2.31,2.31,0,0,1,.55.07c.22.06.32.16.32.35a.87.87,0,0,1-.22.63C135.51,146.44,126.9,158.76,118,171l13.68,0c6.13,0,8-1,9.26-2.57a8.14,8.14,0,0,0,1.17-2.87,1.64,1.64,0,0,1,.53-.86l.59,0s-1,6-1.32,7.34-.44,1.43-1.77,1.43c-9.76-.05-17.8-.08-28-.11-.7,0-.9-.37-.9-.75s.12-.54.82-1.49c6.48-8.86,13.77-17.7,20.43-26.57q3-4.25,6.14-8.49c.16-.25.35-.5.51-.75l-14.53.06a32.27,32.27,0,0,0-4.28.27,9.35,9.35,0,0,0-2.61.72c-2.09,1-3.31,4.23-3.31,4.23l-.63,1a1,1,0,0,1-.35-.7c0-.64.85-5.5,1.13-7.11a1.42,1.42,0,0,1,.59-1,5.84,5.84,0,0,0,2,.25h0c3.61,0,7,0,10.43.05h0Z" fill="#fff" fill-rule="evenodd" /><path d="M107.42,172.58a14.83,14.83,0,0,1-2.73-.41c-1.13-.31-2.67-1.18-4.56-5.71L85.89,131.64c-.2-.39-.42.23-.42.23L71.84,167c-1,2.78-2.14,4.88-4.71,5.2-.44,0-2.11.12-2.11.12v.32a1.34,1.34,0,0,0,1,.45h6.37l4.28,0a1.15,1.15,0,0,0,.83-.45v-.23l-1.1-.11c-1,0-2.1-.5-2.1-1.62a11.68,11.68,0,0,1,.78-3.71l3.63-10.36,12.61.12,5.3,14c.33.9,0,1.4-.33,1.5s-.4.17-.4.4.6.5,1.65.5l8.77,0a1.92,1.92,0,0,0,1.11-.45ZM79.34,154.76,85,138.57l5.65,16.24Z" fill="#fff" fill-rule="evenodd" /><path d="M188.78,172.94a15.79,15.79,0,0,1-2.73-.41c-1.13-.32-2.67-1.19-4.54-5.7L167.27,132c-.2-.38-.42.24-.42.24L153.24,167.4c-1,2.77-2.14,4.87-4.72,5.21-.43,0-2.1.1-2.1.1l0,.32a1.34,1.34,0,0,0,1.07.45l6.37,0,4.27,0a1.09,1.09,0,0,0,.82-.45v-.24l-1.1-.1c-1,0-2.12-.52-2.12-1.62a11.14,11.14,0,0,1,.8-3.72l3.63-10.35,12.6.1L178,171.21c.34.88,0,1.38-.33,1.5s-.39.17-.39.38.59.52,1.64.52l8.76,0a1.8,1.8,0,0,0,1.12-.43Zm-28.09-17.83,5.71-16.17L172,155.16Z" fill="#fff" fill-rule="evenodd" /><path d="M26,172.93a1.06,1.06,0,0,1-.87-.59l.06-.25s1.51-.17,2-.27c1.09-.21,1.86-1.47,2.07-3,.29-2.27.31-6.53.32-11.73l.05-9.51c0-8.42.07-15.71,0-17.45s-.54-2.7-2.31-3.09a17.67,17.67,0,0,0-1.84-.16l-.43-.32.12-.47,7.17.22,6.63-.17.08.47-.43.33s-1.14,0-1.79.15c-1.57.25-2,1.19-2.12,3.08-.12,1.72-.15,9-.17,17.44l-.05,9.61c0,7.94.24,10.93,1.14,12s7,1.43,13.18,1.47h2c6.14,0,7.57-1,8.81-2.57a7.78,7.78,0,0,0,1.17-2.87,1.64,1.64,0,0,1,.53-.84l.59,0s-1,6-1.32,7.32-.42,1.38-1.76,1.38Z" fill="#fff" fill-rule="evenodd" /><path d="M233.63,173.08a14.63,14.63,0,0,1-2.31-.14c-1.33-.23-3.62-.83-6.48-3.91-3.08-3.32-6.69-8.1-11.05-13.73,4.83-4.41,6.5-8.37,6.52-12.34a9.26,9.26,0,0,0-3.66-7.26c-2.82-2.06-8.17-2.39-11.55-2.41-1.65,0-5.71.13-6.3.13l-6.88-.18v.42s.22.33.42.33a10.8,10.8,0,0,1,1.82.17c1.75.38,2.19,1.25,2.29,3.06s.08,3.2.05,11.54l0,9.41c0,5.15-.05,9.36-.31,11.61-.24,1.56-.5,2.73-1.57,2.93a19.6,19.6,0,0,1-2,.22l-.06.31a1,1,0,0,0,.85.44l5,0,6.62,0a1,1,0,0,0,.85-.42l-.13-.32s-2-.13-2.69-.23c-1.63-.22-1.94-1.4-2.09-3-.25-2.25-.24-6.47-.22-11.6l0-1.28c0-.27.1-.42.36-.42l8.36.13a.83.83,0,0,1,.68.34c1.06,1.38,3.56,5,5.79,7.92,3,4,4.89,6.67,7.18,7.9,1.39.75,2.71,1,5.7,1l3.79,0a1.57,1.57,0,0,0,1.29-.42ZM212.49,154c-1.24.85-4.51,1-5.8,1a14.85,14.85,0,0,1-5.6-.88.72.72,0,0,1-.38-.64l.08-17.49a.66.66,0,0,1,.44-.64,17.07,17.07,0,0,1,3.57-.3c5.72,0,11,4.06,11,10.75C215.77,149.82,214.36,152.69,212.49,154Z" fill="#fff" fill-rule="evenodd" /><path d="M270.09,139.39c-5.2-5-10.86-5.65-16.36-5.8l-16.09-.15v.48s.15.34.37.34l.75,0h.07a12.19,12.19,0,0,1,1.53.14l.47.13.13.05a2.13,2.13,0,0,1,.46.2h0a1.62,1.62,0,0,1,.35.27h0l.2.24a.39.39,0,0,1,.08.1l.07.12a4.58,4.58,0,0,1,.43,1.95c.09,1.69.07,3.19,0,11.5v2.85l0,3.65,0,2.84c0,8.32,0,9.81-.15,11.51a4.57,4.57,0,0,1-.45,2,.67.67,0,0,0-.07.11s-.06.05-.08.09-.13.16-.22.25h0a2.45,2.45,0,0,1-.35.26h0a3.18,3.18,0,0,1-.45.2l-.13.05-.47.13a13.14,13.14,0,0,1-1.54.12h-.07c-.41,0-.43,0-.61,0s-.32.32-.32.32v.47l15.94.08c6.52,0,11.33-1.42,16.08-6.22a13.63,13.63,0,0,0,1.57-2,35.28,35.28,0,0,0,1.9-3.56C278.16,149.57,271.61,140.86,270.09,139.39Zm-6.95,30.36a17,17,0,0,1-8.29,2.31,39.71,39.71,0,0,1-6.52-.24l-1.27-.41a1,1,0,0,1-.28-.86c-.05-1.82,0-7.25,0-11.34l0-3.71v-7.37c0-4.1.05-9.53.1-11.35a1.06,1.06,0,0,1,.3-.85l1.27-.4c.74-.1,2.44-.2,2.48-.2a24.66,24.66,0,0,1,3.89.13,19.78,19.78,0,0,1,3.41.69,13.51,13.51,0,0,1,3.16,1.43c5.46,3.18,9,8.06,9,16.41C270.44,161.3,268.25,166.78,263.14,169.75Z" fill="#fff" fill-rule="evenodd" /></g></svg>